# xmcd CD database file
#
# Track frame offsets:
#	180
#	19522
#	37155
#	54300
#	72260
#	87097
#	104727
#	120952
#	139790
#	156637
#	169977
#
# Disc length: 2535 seconds
#
# Revision: 0
# Processed by: cddbd v1.4PL0 Copyright (c) Steve Scherf et al.
# Submitted via: CDex 1.50
#
DISCID=9509e50b
DTITLE=DooThe Doo - Hex
DYEAR=2002
DGENRE=Blues
TTITLE0=Little Voodoo Queen
TTITLE1=Two Faced Love
TTITLE2=I've Been Waiting
TTITLE3=French Girl
TTITLE4=Rocking Daddy
TTITLE5=Just Say Yes
TTITLE6=Despairing Woman
TTITLE7=Standing By The Roadside
TTITLE8=Monkey Woo
TTITLE9=Bubble Bath Boogie
TTITLE10=Let Your Love Come Over Me
EXTD=YEAR: 2002
EXTT0=
EXTT1=
EXTT2=
EXTT3=
EXTT4=
EXTT5=
EXTT6=
EXTT7=
EXTT8=
EXTT9=
EXTT10=
PLAYORDER=
